
<svg xmlns="http://www.w3.org/2000/svg" style="display:none">

  <symbol id="arrow-right" viewBox="0 0 24 24" fill="none">
    <path fill-rule="evenodd" clip-rule="evenodd" d="M21.1365 12.6362C21.4879 12.2848 21.4879 11.7149 21.1365 11.3635L14.1365 4.36346C13.785 4.01199 13.2152 4.01199 12.8637 4.36346C12.5122 4.71493 12.5122 5.28478 12.8637 5.63625L18.3273 11.0999H3.50012C3.00307 11.0999 2.60013 11.5028 2.60013 11.9999C2.60013 12.4969 3.00307 12.8999 3.50012 12.8999H18.3273L12.8637 18.3635C12.5122 18.7149 12.5122 19.2848 12.8637 19.6363C13.2152 19.9877 13.785 19.9877 14.1365 19.6362L21.1365 12.6362Z" fill="currentColor"></path>
  </symbol>

  <symbol id="arrow-left" viewBox="0 0 24 24" fill="none">
    <path fill-rule="evenodd" clip-rule="evenodd" d="M2.86358 11.3635C2.51211 11.715 2.51211 12.2848 2.86358 12.6363L9.86355 19.6363C10.215 19.9878 10.7849 19.9878 11.1363 19.6363C11.4878 19.2848 11.4878 18.715 11.1363 18.3635L5.67276 12.8999H20.4999C20.997 12.8999 21.3999 12.497 21.3999 11.9999C21.3999 11.5028 20.997 11.0999 20.4999 11.0999L5.67276 11.0999L11.1363 5.6363C11.4878 5.28483 11.4878 4.71498 11.1363 4.36351C10.7849 4.01203 10.215 4.01203 9.86355 4.36351L2.86358 11.3635Z" fill="currentColor"></path>
  </symbol>

  <symbol id="arrow-up" viewBox="0 0 24 24" fill="none">
    <path fill-rule="evenodd" clip-rule="evenodd" d="M12.6365 2.86346C12.285 2.51199 11.7152 2.51199 11.3637 2.86346L4.36373 9.86345C4.01226 10.2149 4.01226 10.7848 4.36373 11.1362C4.7152 11.4877 5.28505 11.4877 5.63652 11.1362L11.1001 5.67265V20.4999C11.1001 20.9969 11.503 21.3999 12.0001 21.3999C12.4972 21.3999 12.9001 20.9969 12.9001 20.4999V5.67265L18.3637 11.1362C18.7151 11.4877 19.285 11.4877 19.6365 11.1362C19.9879 10.7848 19.9879 10.2149 19.6365 9.86345L12.6365 2.86346Z" fill="currentColor"></path>
  </symbol>

  <symbol id="arrow-down" viewBox="0 0 24 24" fill="none">
    <path fill-rule="evenodd" clip-rule="evenodd" d="M11.3637 21.1362C11.7152 21.4877 12.285 21.4877 12.6365 21.1362L19.6365 14.1363C19.9879 13.7848 19.9879 13.2149 19.6365 12.8635C19.285 12.512 18.7151 12.512 18.3637 12.8635L12.9001 18.3271L12.9001 3.49985C12.9001 3.0028 12.4972 2.59985 12.0001 2.59985C11.503 2.59985 11.1001 3.0028 11.1001 3.49985V18.3271L5.63652 12.8635C5.28505 12.512 4.7152 12.512 4.36373 12.8635C4.01226 13.2149 4.01226 13.7848 4.36373 14.1363L11.3637 21.1362Z" fill="currentColor"></path>
  </symbol>

  <symbol id="bell" viewBox="0 0 24 24" fill="none">
    <path fill-rule="evenodd" clip-rule="evenodd" d="M11.9999 2.1001C9.77471 2.1001 7.94532 2.88789 6.68783 4.37443C5.4477 5.84044 4.84996 7.8832 4.84996 10.2501L4.84997 11.0001C4.84997 13.4652 4.16674 14.9249 3.19362 15.8682C2.81208 16.2381 2.77247 16.7499 2.90886 17.1264C3.04756 17.5094 3.42766 17.9001 3.99952 17.9001H20.0003C20.5722 17.9001 20.9523 17.5094 21.091 17.1264C21.2274 16.7499 21.1878 16.2381 20.8063 15.8682C19.8331 14.9249 19.1499 13.4652 19.1499 11.0001L19.1499 10.2501C19.1499 7.8832 18.5522 5.84044 17.312 4.37443C16.0546 2.88789 14.2252 2.1001 11.9999 2.1001ZM6.64996 10.2501C6.64996 8.16522 7.17722 6.58298 8.06208 5.53693C8.92958 4.51142 10.2252 3.9001 11.9999 3.9001C13.7747 3.9001 15.0703 4.51142 15.9378 5.53693C16.8227 6.58297 17.3499 8.16522 17.3499 10.2501L17.3499 11.0001C17.3499 13.1628 17.8181 14.8273 18.6686 16.1001H5.33125C6.18182 14.8273 6.64996 13.1628 6.64996 11.0001L6.64996 10.2501Z" fill="currentColor"></path>
    <path d="M9.99995 20.0999C9.5029 20.0999 9.09995 20.5029 9.09995 20.9999C9.09995 21.497 9.5029 21.8999 9.99995 21.8999H13.9999C14.497 21.8999 14.8999 21.497 14.8999 20.9999C14.8999 20.5029 14.497 20.0999 13.9999 20.0999H9.99995Z" fill="currentColor"></path>
  </symbol>

  <symbol id="bookmark" viewBox="0 0 24 24" fill="none">
    <path fill-rule="evenodd" clip-rule="evenodd" d="M8.16444 2.59985H15.8352C16.365 2.59984 16.8163 2.59983 17.1867 2.63009C17.5759 2.66189 17.9544 2.73152 18.3164 2.91594C18.862 3.19397 19.3057 3.63761 19.5837 4.18328C19.7681 4.54522 19.8378 4.92381 19.8696 5.31297C19.8998 5.6834 19.8998 6.13458 19.8998 6.66445V21.4999C19.8998 21.8249 19.7245 22.1248 19.4412 22.2842C19.1579 22.4436 18.8106 22.4379 18.5327 22.2692L11.9998 18.3028L5.46693 22.2692C5.18905 22.4379 4.84179 22.4436 4.55848 22.2842C4.27517 22.1248 4.09985 21.8249 4.09985 21.4999V6.66445C4.09984 6.13461 4.09983 5.68339 4.13009 5.31297C4.16189 4.92381 4.23152 4.54522 4.41594 4.18328C4.69397 3.63761 5.13761 3.19397 5.68328 2.91594C6.04521 2.73152 6.4238 2.66189 6.81296 2.63009C7.18337 2.59983 7.63461 2.59984 8.16444 2.59985ZM7.79988 4.39992C6.98532 4.39992 6.79148 4.41103 6.65996 4.45376C6.32508 4.56257 6.06253 4.82512 5.95372 5.16001C5.91099 5.29153 5.89988 5.48536 5.89988 6.29992V19.9006L11.5328 16.4806C11.8198 16.3064 12.1799 16.3064 12.4669 16.4806L18.0998 19.9006V6.29992C18.0998 5.48536 18.0887 5.29153 18.046 5.16001C17.9372 4.82512 17.6746 4.56257 17.3398 4.45376C17.2082 4.41103 17.0144 4.39992 16.1998 4.39992H7.79988Z" fill="currentColor"></path>
  </symbol>

  <symbol id="bookmark-fill" viewBox="0 0 24 24" fill="none">
    <path d="M8.16444 2.59985C7.63458 2.59984 7.18338 2.59983 6.81296 2.63009C6.4238 2.66189 6.04521 2.73152 5.68328 2.91594C5.13761 3.19397 4.69397 3.63761 4.41594 4.18328C4.23152 4.54522 4.16189 4.92381 4.13009 5.31297C4.09983 5.6834 4.09984 6.13457 4.09985 6.66442V21.4999C4.09985 21.8249 4.27517 22.1248 4.55848 22.2842C4.84178 22.4436 5.18905 22.4379 5.46693 22.2692L11.9998 18.3027L18.5327 22.2692C18.8106 22.4379 19.1579 22.4436 19.4412 22.2842C19.7245 22.1248 19.8998 21.8249 19.8998 21.4999V6.66445C19.8998 6.13458 19.8998 5.6834 19.8696 5.31297C19.8378 4.92381 19.7681 4.54522 19.5837 4.18328C19.3057 3.63761 18.862 3.19397 18.3164 2.91594C17.9544 2.73152 17.5758 2.66189 17.1867 2.63009C16.8163 2.59983 16.3651 2.59984 15.8352 2.59985H8.16444Z" fill="currentColor"></path>
  </symbol>

  <symbol id="bubble" viewBox="0 0 24 24" fill="none">
    <path fill-rule="evenodd" clip-rule="evenodd" d="M12.0002 4.1501C7.66476 4.1501 4.15021 7.66466 4.15021 12.0001C4.15021 16.3355 7.66476 19.8501 12.0002 19.8501C13.3615 19.8501 14.6393 19.5044 15.7534 18.8966C15.9575 18.7853 16.1968 18.7572 16.4212 18.8184L18.5356 19.3951C18.9954 19.5205 19.2802 19.5972 19.4893 19.6341C19.5637 19.6473 19.6108 19.6517 19.6372 19.6531C19.6431 19.6484 19.6485 19.643 19.6532 19.6371C19.6517 19.6107 19.6473 19.5636 19.6342 19.4893C19.5973 19.2802 19.5205 18.9953 19.3951 18.5356L18.8185 16.4211C18.7573 16.1968 18.7853 15.9575 18.8967 15.7533C19.5044 14.6392 19.8502 13.3614 19.8502 12.0001C19.8502 7.66466 16.3356 4.1501 12.0002 4.1501ZM2.35022 12.0001C2.35022 6.67055 6.67066 2.3501 12.0002 2.3501C17.3297 2.3501 21.6501 6.67055 21.6501 12.0001C21.6501 13.5384 21.2895 14.9948 20.6477 16.2873L21.142 18.0998C21.2539 18.5099 21.3537 18.8758 21.4068 19.1763C21.4605 19.4809 21.4972 19.867 21.3499 20.2526C21.157 20.7579 20.7579 21.157 20.2527 21.3499C19.867 21.4971 19.4809 21.4605 19.1764 21.4067C18.8758 21.3537 18.51 21.2539 18.0999 21.142L16.2873 20.6476C14.9949 21.2895 13.5385 21.6501 12.0002 21.6501C6.67066 21.6501 2.35022 17.3296 2.35022 12.0001Z" fill="currentColor"></path>
  </symbol>

  <symbol id="bulb" viewBox="0 0 24 24" fill="none">
    <path fill-rule="evenodd" clip-rule="evenodd" d="M12.0001 2.10107C7.91319 2.10107 4.6001 5.41417 4.6001 9.50107C4.6001 12.262 6.11211 14.6682 8.3501 15.9395L8.3501 16.1344C8.35008 16.5259 8.35006 16.8724 8.37352 17.1596C8.39851 17.4653 8.45452 17.7822 8.61168 18.0907C8.84178 18.5422 9.20893 18.9094 9.66052 19.1395C9.96898 19.2967 10.2858 19.3527 10.5916 19.3776C10.8788 19.4011 11.2252 19.4011 11.6167 19.4011H12.3834C12.7749 19.4011 13.1214 19.4011 13.4086 19.3776C13.7144 19.3527 14.0312 19.2967 14.3397 19.1395C14.7913 18.9094 15.1584 18.5422 15.3885 18.0907C15.5457 17.7822 15.6017 17.4653 15.6267 17.1596C15.6501 16.8724 15.6501 16.526 15.6501 16.1345L15.6501 15.9395C17.8881 14.6682 19.4001 12.262 19.4001 9.50107C19.4001 5.41417 16.087 2.10107 12.0001 2.10107ZM6.40015 9.50088C6.40015 6.40808 8.90735 3.90088 12.0001 3.90088C15.0929 3.90088 17.6001 6.40808 17.6001 9.50088C17.6001 11.7455 16.2795 13.6836 14.3689 14.5769C14.0524 14.7249 13.8501 15.0428 13.8501 15.3922V16.4009C13.8501 17.0293 13.839 17.1301 13.8208 17.1863C13.7614 17.369 13.6182 17.5122 13.4356 17.5715C13.3794 17.5898 13.2786 17.6009 12.6501 17.6009H11.3501C10.7217 17.6009 10.6209 17.5898 10.5647 17.5715C10.3821 17.5122 10.2389 17.369 10.1795 17.1863C10.1613 17.1301 10.1501 17.0293 10.1501 16.4009V15.3922C10.1501 15.0428 9.94789 14.7249 9.63136 14.5769C7.72078 13.6836 6.40015 11.7455 6.40015 9.50088Z" fill="currentColor"></path>
    <path d="M9.75012 21.1015C9.25307 21.1015 8.85012 21.5044 8.85012 22.0015C8.85012 22.4985 9.25307 22.9015 9.75012 22.9015H14.2501C14.7472 22.9015 15.1501 22.4985 15.1501 22.0015C15.1501 21.5044 14.7472 21.1015 14.2501 21.1015H9.75012Z" fill="currentColor"></path>
  </symbol>

  <symbol id="business-bag" viewBox="0 0 24 24" fill="none">
    <path d="M8.99989 10.1C8.50283 10.1 8.09989 10.5029 8.09989 11C8.09989 11.4971 8.50283 11.9 8.99989 11.9H14.9999C15.4969 11.9 15.8999 11.4971 15.8999 11C15.8999 10.5029 15.4969 10.1 14.9999 10.1H8.99989Z" fill="currentColor"></path>
    <path fill-rule="evenodd" clip-rule="evenodd" d="M9.57023 2.09998H14.4297C14.684 2.09995 14.9261 2.09993 15.1301 2.11659C15.3525 2.13476 15.6076 2.17715 15.8625 2.30707C16.2201 2.48923 16.5107 2.77989 16.6929 3.1374C16.8228 3.39237 16.8652 3.64748 16.8833 3.86989C16.9 4.07385 16.9 4.3159 16.9 4.57022L16.9 5.59998L17.8354 5.59998C18.3652 5.59996 18.8164 5.59995 19.1868 5.63022C19.576 5.66201 19.9546 5.73165 20.3165 5.91606C20.8622 6.19409 21.3058 6.63774 21.5839 7.18341C21.7683 7.54534 21.8379 7.92393 21.8697 8.31309C21.9 8.68351 21.8999 9.13466 21.8999 9.6645V16.8354C21.8999 17.3652 21.9 17.8165 21.8697 18.1869C21.8379 18.576 21.7683 18.9546 21.5839 19.3166C21.3058 19.8622 20.8622 20.3059 20.3165 20.5839C19.9546 20.7683 19.576 20.8379 19.1868 20.8697C18.8164 20.9 18.3653 20.9 17.8354 20.9H6.16459C5.63476 20.9 5.18353 20.9 4.81312 20.8697C4.42396 20.8379 4.04536 20.7683 3.68343 20.5839C3.13776 20.3059 2.69412 19.8622 2.41609 19.3166C2.23168 18.9546 2.16204 18.576 2.13025 18.1869C2.09998 17.8165 2.09999 17.3653 2.10001 16.8355V9.66458C2.09999 9.13474 2.09998 8.68351 2.13025 8.31309C2.16204 7.92393 2.23168 7.54534 2.41609 7.18341C2.69412 6.63774 3.13776 6.19409 3.68343 5.91606C4.04536 5.73165 4.42396 5.66201 4.81312 5.63022C5.18355 5.59995 5.63473 5.59996 6.16459 5.59998L7.1 5.59998L7.09999 4.57022C7.09997 4.3159 7.09995 4.07385 7.11661 3.86989C7.13478 3.64748 7.17717 3.39237 7.30708 3.1374C7.48924 2.77989 7.7799 2.48923 8.13741 2.30707C8.39239 2.17715 8.6475 2.13476 8.8699 2.11659C9.07387 2.09993 9.31591 2.09995 9.57023 2.09998ZM15.1 4.00002V5.60002H8.89998V4.00002C8.89998 3.9448 8.94475 3.90002 8.99998 3.90002H15C15.0552 3.90002 15.1 3.94479 15.1 4.00002ZM5.79998 7.40002C4.98542 7.40002 4.79159 7.41113 4.66007 7.45386C4.32519 7.56267 4.06264 7.82522 3.95383 8.16011C3.91109 8.29163 3.89999 8.48546 3.89999 9.30002V17.2C3.89999 18.0146 3.91109 18.2084 3.95383 18.3399C4.06264 18.6748 4.32519 18.9374 4.66007 19.0462C4.79159 19.0889 4.98542 19.1 5.79998 19.1H18.1999C19.0145 19.1 19.2083 19.0889 19.3398 19.0462C19.6747 18.9374 19.9373 18.6748 20.0461 18.3399C20.0888 18.2084 20.0999 18.0146 20.0999 17.2V9.30002C20.0999 8.48546 20.0888 8.29163 20.0461 8.16011C19.9373 7.82522 19.6747 7.56267 19.3398 7.45386C19.2083 7.41113 19.0145 7.40002 18.1999 7.40002H5.79998Z" fill="currentColor"></path>
  </symbol>

  <symbol id="attachment" viewBox="0 0 24 24" fill="none">
    <path d="M10.3504 3.89998C9.02491 3.89998 7.95039 4.97449 7.95039 6.29997V16.05C7.95039 18.2867 9.76364 20.1 12.0004 20.1C14.2371 20.1 16.0504 18.2867 16.0504 16.05V5.93021C16.0504 5.43315 16.4533 5.03021 16.9504 5.03021C17.4474 5.03021 17.8504 5.43315 17.8504 5.93021V16.05C17.8504 19.2808 15.2313 21.9 12.0004 21.9C8.76953 21.9 6.15039 19.2808 6.15039 16.05V6.29997C6.15039 3.98038 8.0308 2.09998 10.3504 2.09998C12.67 2.09998 14.5504 3.98038 14.5504 6.29997V16.0011C14.5504 17.4095 13.4087 18.5511 12.0004 18.5511C10.5921 18.5511 9.45039 17.4095 9.45039 16.0011V7.18602C9.45039 6.68897 9.85333 6.28602 10.3504 6.28602C10.8474 6.28602 11.2504 6.68897 11.2504 7.18602V16.0011C11.2504 16.4154 11.5862 16.7511 12.0004 16.7511C12.4146 16.7511 12.7504 16.4154 12.7504 16.0011V6.29997C12.7504 4.97449 11.6759 3.89998 10.3504 3.89998Z" fill="currentColor"></path>
  </symbol>

</svg>